HIERARCHY
ROOT Hips
{
	OFFSET	0.000000	0.000000	0.000000
	CHANNELS 6 Xposition Yposition Zposition Zrotation Xrotation Yrotation
	JOINT LeftUpLeg
	{
		OFFSET	12.830505	-7.049846	-1.643436
		CHANNELS 3 Zrotation Xrotation Yrotation
		JOINT LeftLeg
		{
			OFFSET	0.620834	-39.957500	-1.919341
			CHANNELS 3 Zrotation Xrotation Yrotation
			JOINT LeftFoot
			{
				OFFSET	-0.413890	-44.704761	-3.870325
				CHANNELS 3 Zrotation Xrotation Yrotation
				JOINT LeftFootHeel
				{
					OFFSET	0.717369	-8.904096	-5.182565
					CHANNELS 3 Zrotation Xrotation Yrotation
					End Site
					{
						OFFSET	0.332974	0.000000	18.777164
					}
				}
			}
		}
	}
	JOINT RightUpLeg
	{
		OFFSET	-12.830505	-7.049846	-1.643436
		CHANNELS 3 Zrotation Xrotation Yrotation
		JOINT RightLeg
		{
			OFFSET	-0.620834	-39.957500	-1.919341
			CHANNELS 3 Zrotation Xrotation Yrotation
			JOINT RightFoot
			{
				OFFSET	0.413890	-44.704761	-3.870325
				CHANNELS 3 Zrotation Xrotation Yrotation
				JOINT RightFootHeel
				{
					OFFSET	-0.717369	-8.904096	-5.182565
					CHANNELS 3 Zrotation Xrotation Yrotation
					End Site
					{
						OFFSET	-0.332974	0.000000	18.777164
					}
				}
			}
		}
	}
	JOINT Spine
	{
		OFFSET	0.000000	12.498170	1.820647
		CHANNELS 3 Zrotation Xrotation Yrotation
		JOINT Spine1
		{
			OFFSET	0.000000	7.620000	0.000000
			CHANNELS 3 Zrotation Xrotation Yrotation
			JOINT LeftShoulder
			{
				OFFSET	9.167800	29.136339	-5.551221
				CHANNELS 3 Zrotation Xrotation Yrotation
				JOINT LeftArm
				{
					OFFSET	12.133453	-3.880866	1.461963
					CHANNELS 3 Zrotation Xrotation Yrotation
					JOINT LeftForeArm
					{
						OFFSET	2.507115	-31.664908	-1.069404
						CHANNELS 3 Zrotation Xrotation Yrotation
						JOINT LeftHand
						{
							OFFSET	4.116172	-24.512624	5.009439
							CHANNELS 3 Zrotation Xrotation Yrotation
							End Site
							{
								OFFSET	-0.213136	-10.931856	2.182134
							}
						}
					}
				}
			}
			JOINT RightShoulder
			{
				OFFSET	-9.167800	29.136339	-5.551221
				CHANNELS 3 Zrotation Xrotation Yrotation
				JOINT RightArm
				{
					OFFSET	-12.133453	-3.880866	1.461963
					CHANNELS 3 Zrotation Xrotation Yrotation
					JOINT RightForeArm
					{
						OFFSET	-2.507115	-31.664908	-1.069404
						CHANNELS 3 Zrotation Xrotation Yrotation
						JOINT RightHand
						{
							OFFSET	-4.116172	-24.512624	5.009439
							CHANNELS 3 Zrotation Xrotation Yrotation
							End Site
							{
								OFFSET	0.213136	-10.931856	2.182134
							}
						}
					}
				}
			}
			JOINT Neck
			{
				OFFSET	0.000000	32.926272	-3.635654
				CHANNELS 3 Zrotation Xrotation Yrotation
				JOINT Head
				{
					OFFSET	0.000000	12.481178	4.646143
					CHANNELS 3 Zrotation Xrotation Yrotation
					End Site
					{
						OFFSET	0.000000	17.715204	-2.222063
					}
				}
			}
		}
	}
}
MOTION
Frames:    15
Frame Time: 0.016667
-152.502743	99.953820	773.086211	-1.223090	2.750621	38.865646	8.261941	-20.089973	15.692101	9.718222	31.736881	-6.843294	-13.675991	-10.276475	-11.258170	0.	0.	0.	-9.887104	-11.271041	-3.919036	-0.135168	27.244057	7.158641	5.086668	-12.864182	22.387386	0.	0.	0.	-2.758574	-6.090838	0.594768	2.616339	2.307508	6.568103	2.051457	-2.780112	-4.995686	-7.411098	6.325705	4.526265	-38.263111	-64.844795	-43.570892	37.573795	-17.692944	-12.245342	-5.708313	3.078058	-4.043645	-9.002039	-2.624834	-13.810202	-57.227543	-77.132996	-24.721470	1.901140	-32.683968	-67.519356	-0.932521	10.551804	2.737007	-19.972672	-6.385121	10.365422	
-152.444288	100.207642	772.855682	-1.580760	4.078025	38.757015	7.479491	-21.466280	15.948591	10.029286	31.514664	-7.105630	-13.625491	-9.927527	-10.819319	0.	0.	0.	-10.616573	-12.441899	-4.268456	-0.158601	26.642414	7.246148	4.848835	-12.415365	22.345388	0.	0.	0.	-2.894886	-6.880079	0.521904	2.643151	2.287701	7.812334	1.716886	-2.689921	-5.169006	-7.984537	7.188028	4.243263	-30.087004	-63.632114	-33.054371	35.858063	-19.573599	-11.820172	-6.225228	3.226417	-4.191350	-9.425371	-2.762852	-14.371454	-59.357288	-77.760521	-26.578501	0.729286	-32.122963	-68.408806	-1.255202	10.224726	3.358946	-20.562038	-7.675643	12.373972	
-152.383632	100.377089	772.556398	-1.986194	5.187601	38.921982	6.681396	-23.560181	15.618690	10.560289	32.125782	-7.330513	-13.467827	-9.626272	-10.290155	0.	0.	0.	-11.165490	-13.540348	-4.560172	-0.173137	26.291817	7.315969	4.591702	-12.110584	22.038651	0.	0.	0.	-2.907791	-7.364894	0.520895	2.660037	2.152952	8.790052	1.419914	-2.608542	-5.379142	-8.334102	8.013344	4.088678	-28.372843	-63.196449	-30.170263	35.459351	-18.620768	-10.951181	-6.665600	3.398704	-4.361856	-9.992390	-2.884225	-14.916826	-60.760242	-78.351196	-27.796329	-0.405167	-31.592030	-68.890114	-1.421448	9.922352	3.766700	-21.100348	-8.941186	14.502920	
-152.119327	100.418239	772.158903	-2.472398	6.034844	39.733231	5.705277	-24.883945	14.716814	10.873430	32.258461	-7.500052	-13.374999	-9.493819	-9.999419	0.	0.	0.	-11.798355	-14.361945	-5.339961	-0.109998	26.230953	7.263987	4.424013	-11.998060	21.794529	0.	0.	0.	-2.919189	-7.855284	0.076305	2.849238	2.406960	9.578924	0.777679	-2.888798	-6.054403	-8.476051	8.415636	4.036766	-27.789221	-62.999172	-29.036674	35.320457	-18.143919	-10.486920	-7.091630	3.389651	-4.546908	-10.706096	-2.948728	-15.387092	-61.606434	-78.855263	-28.483917	-1.271765	-31.147705	-68.666885	-1.539776	9.536076	4.003033	-21.591061	-10.090816	16.695259	
-152.371782	100.467277	771.554444	-3.158992	6.796685	40.888092	4.559558	-27.070841	13.290043	11.894475	32.665436	-8.216070	-13.026454	-9.092173	-9.116611	0.	0.	0.	-12.091157	-15.690251	-5.749803	0.219676	26.591421	6.820884	3.952926	-11.779470	21.107746	0.	0.	0.	-2.987307	-8.555222	-0.314132	3.243011	3.025385	9.929241	0.925443	-2.929781	-5.779487	-8.866299	9.475829	4.031367	-24.754286	-62.071632	-24.861710	34.142948	-17.082354	-9.212002	-7.473103	3.162968	-4.733556	-11.553290	-2.878511	-15.714542	-62.284607	-79.239304	-29.078568	-1.692819	-30.797255	-68.107857	-1.518110	8.956008	4.224037	-22.152517	-10.963581	18.844112	
-152.057412	100.382447	771.058660	-4.006058	7.554378	42.130482	3.602496	-28.561131	12.029902	12.263032	32.793640	-8.493372	-12.880655	-8.945329	-8.882341	0.	0.	0.	-12.648179	-16.716610	-6.791824	0.359029	26.856390	6.588261	3.812194	-11.792181	20.882366	0.	0.	0.	-3.124962	-8.971824	-0.359355	3.753525	3.383981	9.870254	0.791682	-3.392127	-5.893752	-9.103063	10.134018	4.219571	-24.250504	-61.788761	-24.662327	33.154072	-15.163114	-8.446729	-7.772867	2.832904	-4.896215	-12.423377	-2.723530	-15.971927	-62.872150	-79.490860	-29.629457	-1.833489	-30.573997	-67.295441	-1.228878	8.279122	4.350286	-22.805540	-11.502367	20.881355	
-151.944347	100.266243	770.588456	-4.926510	8.300167	43.335686	2.559579	-30.433111	10.898529	13.008462	32.943832	-8.969659	-12.567757	-8.579515	-8.578352	0.	0.	0.	-12.957209	-18.047922	-7.444934	0.440152	27.439844	6.346247	3.558029	-11.929555	20.304899	0.	0.	0.	-3.243898	-9.050859	-0.127558	4.205238	3.337218	9.747499	0.308164	-4.088969	-6.614546	-9.181158	10.445780	4.324454	-22.459047	-61.468273	-23.321962	32.332016	-13.104279	-8.062358	-7.997627	2.527704	-5.113018	-13.227437	-2.469759	-16.195854	-63.021774	-79.644730	-29.845465	-2.170584	-30.334988	-66.754639	-0.789302	7.670962	4.412752	-23.310530	-11.621218	22.621622	
-151.933863	100.051178	770.197860	-5.841339	8.868005	44.485413	1.686366	-32.487797	10.342641	14.022491	33.050198	-9.617678	-12.001263	-8.086863	-8.608970	0.	0.	0.	-12.854220	-19.384897	-7.495524	0.369159	28.264187	6.310714	3.220718	-12.510276	19.047676	0.	0.	0.	-3.204741	-8.751414	0.113771	4.659605	3.270018	10.535578	0.430590	-4.883820	-7.160067	-9.227417	11.343715	4.632682	-24.294518	-61.295013	-25.064390	33.588776	-11.344063	-8.628675	-8.334222	1.978475	-6.105726	-13.970873	-2.007092	-16.344904	-62.597317	-79.668747	-29.591713	-2.555402	-30.324903	-66.167015	-0.474064	6.974468	3.737643	-23.584339	-11.459389	23.939075	
-151.408663	99.916254	769.686961	-6.756640	9.149158	45.903793	0.868079	-33.225380	8.763998	14.022488	33.050194	-9.617674	-12.001264	-8.086867	-8.608965	0.	0.	0.	-13.337979	-19.770172	-9.053263	0.369159	28.264191	6.310716	3.220718	-12.510278	19.047678	0.	0.	0.	-3.175435	-8.219650	0.435927	4.853262	2.638796	10.209819	-0.112072	-5.487933	-8.441706	-9.227416	11.343718	4.632686	-24.294521	-61.295040	-25.064377	33.588772	-11.344062	-8.628673	-8.201602	1.764276	-6.249325	-14.572167	-1.491485	-16.402939	-62.178444	-79.476318	-29.251795	-2.837502	-30.708487	-65.667313	0.278505	6.681348	3.791613	-23.907074	-11.070594	25.093971	
-151.617914	99.676928	769.315046	-7.614285	9.146544	47.604855	0.491671	-35.170265	8.641403	14.914116	33.096443	-10.553741	-11.494030	-7.487515	-9.277102	0.	0.	0.	-12.736889	-20.661985	-8.182570	0.678271	29.255329	5.079092	2.711496	-13.198467	17.469042	0.	0.	0.	-3.249909	-7.721019	0.760086	5.222497	2.166548	9.560184	0.913891	-6.077587	-7.548145	-8.305954	12.736040	5.396858	-26.391865	-61.535599	-26.477476	36.336460	-10.707449	-8.653713	-7.985868	1.668351	-6.316985	-15.042564	-0.953095	-16.501390	-61.951900	-79.106766	-28.900116	-3.240994	-31.285627	-65.234879	1.186611	6.506800	3.707981	-24.372955	-10.498395	26.109804	
-151.260872	99.527160	768.910342	-8.202230	8.987332	48.469566	0.262595	-35.702202	8.249825	15.069695	33.048130	-10.807613	-11.496853	-7.244145	-9.598926	0.	0.	0.	-12.655399	-20.854216	-8.198578	0.866644	29.478609	4.536552	2.556131	-13.287952	17.070414	0.	0.	0.	-3.324942	-7.526249	0.880497	5.460590	2.047345	9.161131	1.049742	-6.360974	-7.513834	-8.108023	12.900191	5.388074	-26.366249	-61.782318	-26.415979	37.191677	-10.456087	-8.634629	-7.871940	1.641879	-6.268549	-15.240842	-0.691855	-16.562746	-61.963531	-78.871353	-28.808554	-3.489782	-31.592880	-64.984276	1.570829	6.440309	3.748641	-24.551409	-10.180456	26.500401	
-151.445696	99.411382	768.335493	-9.200999	8.817451	51.008324	-0.156556	-37.171360	7.472716	15.337928	32.729935	-11.508935	-11.854536	-6.156394	-10.818626	0.	0.	0.	-12.339149	-21.330036	-7.754145	1.696003	29.945517	2.840300	1.881693	-13.493719	15.389550	0.	0.	0.	-3.699159	-6.810166	1.340533	6.392183	1.674492	7.660264	1.437292	-7.205689	-7.030953	-7.520337	12.890514	5.469993	-25.816404	-62.495274	-25.723257	40.107334	-10.200614	-8.216710	-7.624697	1.476665	-5.832286	-15.589254	0.087820	-16.824806	-62.701103	-78.110680	-29.161282	-4.255726	-32.405720	-64.179169	2.299291	6.160407	4.267516	-24.865721	-9.193904	27.211094	
-151.285676	99.315060	767.889396	-9.990027	8.664001	52.538155	-0.277528	-38.051098	7.183239	15.244555	32.340496	-11.635151	-12.410397	-5.223951	-11.827315	0.	0.	0.	-12.007439	-21.623129	-7.179808	2.137640	30.084148	2.002522	1.384196	-13.549250	13.889141	0.	0.	0.	-4.151532	-6.381472	1.771137	7.186588	1.447678	6.586902	1.782638	-7.778204	-6.443082	-7.227536	12.711550	5.479998	-25.095882	-63.246384	-24.745707	42.147442	-10.180020	-7.753749	-7.427542	1.416306	-5.432470	-15.595795	0.517195	-17.122862	-64.105110	-77.457466	-30.286713	-4.198141	-33.164177	-63.438572	2.629875	5.952002	4.775112	-25.040386	-8.612635	27.402573	
-150.850325	99.193217	767.512830	-10.552322	8.513052	53.265350	-0.303422	-38.436386	7.061118	15.065031	32.084003	-11.549160	-12.734965	-4.693272	-12.408124	0.	0.	0.	-11.867537	-21.741459	-6.871173	2.338943	30.116423	1.658260	1.132864	-13.570667	13.072556	0.	0.	0.	-4.369517	-6.138175	2.013438	7.517710	1.284856	6.066803	2.009652	-8.040064	-6.119940	-7.130919	12.592285	5.533134	-24.730227	-63.738602	-24.240896	43.058380	-10.095938	-7.604190	-7.298482	1.436548	-5.208781	-15.494168	0.683378	-17.387445	-65.102211	-77.082191	-31.094030	-3.927889	-33.677120	-62.933270	2.815402	5.854153	5.057794	-25.150797	-8.329448	27.429199	
-150.897580	99.228167	767.066501	-11.454939	8.411226	55.529037	-0.804157	-39.176754	5.878320	14.435166	31.374300	-11.094120	-13.362885	-3.488675	-13.653465	0.	0.	0.	-11.362498	-21.985373	-5.994912	2.813104	29.982773	0.527050	0.349122	-13.459958	10.759808	0.	0.	0.	-4.708529	-5.243387	2.619962	8.052849	0.403557	4.943626	2.742340	-8.526967	-5.468175	-7.037269	12.066806	6.116539	-23.083210	-65.529541	-22.642273	44.937965	-9.649491	-7.153732	-6.834291	1.805114	-4.775267	-14.621255	1.140200	-18.731539	-68.927925	-75.882919	-33.944103	-2.650457	-35.635319	-60.903622	3.298767	6.176806	6.480930	-25.508917	-7.512748	26.456100	
